<?xml version="1.0" encoding="UTF-8"?>
<svg>
    <defs>
        <svg id="dark" viewBox="0 0 24 24">
            <path d="M12,18C11.11,18 10.26,17.8 9.5,17.45C11.56,16.5 13,14.42 13,12C13,9.58 11.56,7.5 9.5,6.55C10.26,6.2 11.11,6 12,6A6,6 0 0,1 18,12A6,6 0 0,1 12,18M20,8.69V4H15.31L12,0.69L8.69,4H4V8.69L0.69,12L4,15.31V20H8.69L12,23.31L15.31,20H20V15.31L23.31,12L20,8.69Z" />
        </svg>

        <svg id="android" viewBox="0 0 256 301">
            <g>
                <path d="M78.3890161,0.858476242 C76.9846593,0.871877584 75.5269206,1.21067383 74.1988355,1.94683705 C69.9813154,4.28464966 68.4344792,9.70448752 70.7705059,13.9187887 L80.2936432,31.1148585 C57.3501835,45.3109605 42.146676,69.5583356 42.146676,97.23264 C42.146676,97.3488107 42.1463538,97.5233203 42.146676,97.6951925 C42.1467894,97.7558421 42.1461099,97.7904107 42.146676,97.8584397 C42.1467112,97.9488816 42.146676,98.0809536 42.146676,98.1033235 L42.146676,102.37513 C37.7401995,97.3051619 31.2627337,94.103607 24.0255064,94.103607 C10.766574,94.103607 0,104.870185 0,118.129121 L0,192.137501 C0,205.396437 10.766574,216.163015 24.0255064,216.163015 C31.2627337,216.163015 37.7401995,212.96146 42.146676,207.891492 L42.146676,218.258109 C42.146676,232.234601 53.5833566,243.671281 67.5598484,243.671281 L74.0083724,243.671281 L74.0083724,276.594135 C74.0083724,289.853131 84.774955,300.619649 98.0338856,300.619649 C111.292821,300.619649 122.0594,289.853131 122.0594,276.594135 L122.0594,243.671281 L133.215081,243.671281 L133.215081,276.594135 C133.215081,289.853131 143.981659,300.619649 157.240595,300.619649 C170.499522,300.619649 181.266118,289.853131 181.266118,276.594135 L181.266118,243.671281 L187.714637,243.671281 C201.691129,243.671281 213.127809,232.234601 213.127809,218.258109 L213.127809,207.891492 C217.534299,212.96146 224.011752,216.163015 231.248984,216.163015 C244.507919,216.163015 255.274498,205.396437 255.274498,192.137501 L255.274498,118.129121 C255.274498,104.870185 244.507919,94.103607 231.248984,94.103607 C224.011752,94.103607 217.534299,97.3051619 213.127809,102.37513 L213.127809,98.1849514 L213.127809,98.1033407 C213.128367,97.9723769 213.127955,97.8421262 213.127809,97.8584655 C213.129527,97.5976548 213.127809,97.3898395 213.127809,97.2326572 C213.127809,69.5631979 197.890397,45.339215 174.95363,31.1420821 L184.503985,13.918763 C186.840011,9.70446174 185.293178,4.28462389 181.075655,1.94681128 C179.747565,1.21064805 178.289834,0.871868993 176.885477,0.85845047 C173.770979,0.828641074 170.714038,2.4700306 169.103704,5.37514094 L159.118011,23.4146964 C149.353914,19.811505 138.730068,17.8368515 127.637245,17.8368515 C116.555726,17.8368515 105.912363,19.7912913 96.1564693,23.3874813 L86.1707769,5.37514094 C84.5604527,2.47002201 81.503506,0.828709799 78.3890161,0.85845047 L78.3890161,0.858476242 Z" fill="#FFFFFF"></path>
                <path d="M24.0260725,100.361664 C14.1317,100.361664 6.25861893,108.234747 6.25861893,118.129121 L6.25861893,192.137501 C6.25861893,202.031875 14.1317,209.904958 24.0260725,209.904958 C33.9204441,209.904958 41.7935257,202.031875 41.7935257,192.137501 L41.7935257,118.129121 C41.7935257,108.234747 33.9204441,100.361664 24.0260725,100.361664 L24.0260725,100.361664 Z M231.249551,100.361664 C221.355176,100.361664 213.482094,108.234747 213.482094,118.129121 L213.482094,192.137501 C213.482094,202.031875 221.355176,209.904958 231.249551,209.904958 C241.143925,209.904958 249.016999,202.031875 249.016999,192.137501 L249.016999,118.129121 C249.016999,108.234747 241.143925,100.361664 231.249551,100.361664 L231.249551,100.361664 Z" fill="#A4C639"></path>
                <path d="M98.0338856,184.818075 C88.1395114,184.818075 80.2664341,192.691157 80.2664341,202.585531 L80.2664341,276.593963 C80.2664341,286.488363 88.1395114,294.361308 98.0338856,294.361308 C107.92826,294.361308 115.801342,286.488363 115.801342,276.593963 L115.801342,202.585531 C115.801342,192.691157 107.92826,184.818075 98.0338856,184.818075 L98.0338856,184.818075 Z M157.240595,184.818075 C147.346221,184.818075 139.473138,192.691157 139.473138,202.585531 L139.473138,276.593963 C139.473138,286.488363 147.346221,294.361308 157.240595,294.361308 C167.134969,294.361308 175.008043,286.488363 175.008043,276.593963 L175.008043,202.585531 C175.008043,192.691157 167.134969,184.818075 157.240595,184.818075 L157.240595,184.818075 Z" fill="#A4C639"></path>
                <path d="M78.4434341,7.11654228 C78.0234231,7.12083758 77.6320498,7.22919946 77.2462398,7.44304537 C75.9792855,8.14533584 75.5626532,9.60121987 76.2667168,10.8713836 L88.782836,33.4820338 C64.7023936,46.0117562 48.4373365,69.8232526 48.4047377,97.1510121 L206.869751,97.1510121 C206.837193,69.8232526 190.572096,46.0117562 166.491645,33.4820338 L179.007777,10.8713836 C179.711837,9.60121987 179.295201,8.14533584 178.02825,7.44304537 C177.642438,7.22919946 177.251067,7.1205455 176.831055,7.11654228 C175.931919,7.10786577 175.079646,7.55712 174.599912,8.42257181 L161.920533,31.2781058 C151.548297,26.6773219 139.914231,24.0949434 127.637245,24.0949434 C115.360249,24.0949434 103.726174,26.6773219 93.3539479,31.2781058 L80.6745686,8.42257181 C80.1948375,7.55712 79.3425576,7.10791732 78.4434341,7.11654228 L78.4434341,7.11654228 Z M48.4047377,103.40907 L48.4047377,218.258109 C48.4047377,228.870039 56.9479173,237.413214 67.5598484,237.413214 L187.714637,237.413214 C198.326576,237.413214 206.869751,228.870039 206.869751,218.258109 L206.869751,103.40907 L48.4047377,103.40907 L48.4047377,103.40907 Z" fill="#A4C639"></path>
                <path d="M91.0681772,54.9226953 C87.4507168,54.9226953 84.4563973,57.9170105 84.4563973,61.5344795 C84.4563973,65.1519399 87.4507168,68.146255 91.0681772,68.146255 C94.6856376,68.146255 97.6799528,65.1519399 97.6799528,61.5344795 C97.6799528,57.9170105 94.6856376,54.9226953 91.0681772,54.9226953 L91.0681772,54.9226953 Z M164.205874,54.9226953 C160.588413,54.9226953 157.59409,57.9170105 157.59409,61.5344795 C157.59409,65.1519399 160.588413,68.146255 164.205874,68.146255 C167.823326,68.146255 170.817649,65.1519399 170.817649,61.5344795 C170.817649,57.9170105 167.823326,54.9226953 164.205874,54.9226953 L164.205874,54.9226953 Z" fill="#FFFFFF"></path>
            </g>
        </svg>


        <svg id="menu" viewBox="0 0 24 24">
            <path d="M0 0h24v24H0z" fill="none"/>
            <path d="M3 18h18v-2H3v2zm0-5h18v-2H3v2zm0-7v2h18V6H3z"/>
        </svg>

        <svg id="github" viewBox="0 0 256 250">
            <g>
                <path d="M128.00106,0 C57.3172926,0 0,57.3066942 0,128.00106 C0,184.555281 36.6761997,232.535542 87.534937,249.460899 C93.9320223,250.645779 96.280588,246.684165 96.280588,243.303333 C96.280588,240.251045 96.1618878,230.167899 96.106777,219.472176 C60.4967585,227.215235 52.9826207,204.369712 52.9826207,204.369712 C47.1599584,189.574598 38.770408,185.640538 38.770408,185.640538 C27.1568785,177.696113 39.6458206,177.859325 39.6458206,177.859325 C52.4993419,178.762293 59.267365,191.04987 59.267365,191.04987 C70.6837675,210.618423 89.2115753,204.961093 96.5158685,201.690482 C97.6647155,193.417512 100.981959,187.77078 104.642583,184.574357 C76.211799,181.33766 46.324819,170.362144 46.324819,121.315702 C46.324819,107.340889 51.3250588,95.9223682 59.5132437,86.9583937 C58.1842268,83.7344152 53.8029229,70.715562 60.7532354,53.0843636 C60.7532354,53.0843636 71.5019501,49.6441813 95.9626412,66.2049595 C106.172967,63.368876 117.123047,61.9465949 128.00106,61.8978432 C138.879073,61.9465949 149.837632,63.368876 160.067033,66.2049595 C184.49805,49.6441813 195.231926,53.0843636 195.231926,53.0843636 C202.199197,70.715562 197.815773,83.7344152 196.486756,86.9583937 C204.694018,95.9223682 209.660343,107.340889 209.660343,121.315702 C209.660343,170.478725 179.716133,181.303747 151.213281,184.472614 C155.80443,188.444828 159.895342,196.234518 159.895342,208.176593 C159.895342,225.303317 159.746968,239.087361 159.746968,243.303333 C159.746968,246.709601 162.05102,250.70089 168.53925,249.443941 C219.370432,232.499507 256,184.536204 256,128.00106 C256,57.3066942 198.691187,0 128.00106,0 Z M47.9405593,182.340212 C47.6586465,182.976105 46.6581745,183.166873 45.7467277,182.730227 C44.8183235,182.312656 44.2968914,181.445722 44.5978808,180.80771 C44.8734344,180.152739 45.876026,179.97045 46.8023103,180.409216 C47.7328342,180.826786 48.2627451,181.702199 47.9405593,182.340212 Z M54.2367892,187.958254 C53.6263318,188.524199 52.4329723,188.261363 51.6232682,187.366874 C50.7860088,186.474504 50.6291553,185.281144 51.2480912,184.70672 C51.8776254,184.140775 53.0349512,184.405731 53.8743302,185.298101 C54.7115892,186.201069 54.8748019,187.38595 54.2367892,187.958254 Z M58.5562413,195.146347 C57.7719732,195.691096 56.4895886,195.180261 55.6968417,194.042013 C54.9125733,192.903764 54.9125733,191.538713 55.713799,190.991845 C56.5086651,190.444977 57.7719732,190.936735 58.5753181,192.066505 C59.3574669,193.22383 59.3574669,194.58888 58.5562413,195.146347 Z M65.8613592,203.471174 C65.1597571,204.244846 63.6654083,204.03712 62.5716717,202.981538 C61.4524999,201.94927 61.1409122,200.484596 61.8446341,199.710926 C62.5547146,198.935137 64.0575422,199.15346 65.1597571,200.200564 C66.2704506,201.230712 66.6095936,202.705984 65.8613592,203.471174 Z M75.3025151,206.281542 C74.9930474,207.284134 73.553809,207.739857 72.1039724,207.313809 C70.6562556,206.875043 69.7087748,205.700761 70.0012857,204.687571 C70.302275,203.678621 71.7478721,203.20382 73.2083069,203.659543 C74.6539041,204.09619 75.6035048,205.261994 75.3025151,206.281542 Z M86.046947,207.473627 C86.0829806,208.529209 84.8535871,209.404622 83.3316829,209.4237 C81.8013,209.457614 80.563428,208.603398 80.5464708,207.564772 C80.5464708,206.498591 81.7483088,205.631657 83.2786917,205.606221 C84.8005962,205.576546 86.046947,206.424403 86.046947,207.473627 Z M96.6021471,207.069023 C96.7844366,208.099171 95.7267341,209.156872 94.215428,209.438785 C92.7295577,209.710099 91.3539086,209.074206 91.1652603,208.052538 C90.9808515,206.996955 92.0576306,205.939253 93.5413813,205.66582 C95.054807,205.402984 96.4092596,206.021919 96.6021471,207.069023 Z"></path>
            </g>
        </svg>

        <svg id="flutter" viewBox="0 0 24 24">
            <path d="M14.314 0L2.3 12 6 15.7 21.684.012h-7.357L14.314 0zm.014 11.072l-6.471 6.457 6.47 6.47H21.7l-6.46-6.468 6.46-6.46h-7.371z"/>
        </svg>

        <svg id="angular" viewBox="0 0 512 512">
            <g id="_x32_1-angular">
                <g>
                    <path d="M216.879,268.426h78.241L256,174.372L216.879,268.426L216.879,268.426z M256,26.001L42.635,102.395    l32.652,283.081L256,485.999l180.712-100.523l32.653-283.081L256,26.001z M389.688,376.957h-49.904l-26.9-67.153H199.321    l-26.903,67.153h-50.003L256,76.827L389.688,376.957z" style="fill:#DD0031;"/>
                </g>
            </g>
            <g id="Layer_1"/>
        </svg>

        <svg id="spring" viewBox="0 0 767.8 768">
            <style>.st0{fill:#77bc1f}</style>
            <path class="st0" d="M698.3 40c-10.8 25.8-24.5 50.3-41 72.8C585.1 40.6 487.1 0 385 0 173.8 0 0 174 0 385.5 0 491 43.2 592 119.6 664.8l14.2 12.6c69.4 58.5 157.3 90.7 248 90.7 200.8 0 369.6-157.4 383.9-358 10.5-98.2-18.3-222.4-67.4-370.1zm-524 627c-6.2 7.7-15.7 12.2-25.6 12.2-18.1 0-32.9-14.9-32.9-33s14.9-33 32.9-33c7.5 0 14.9 2.6 20.7 7.4 14.1 11.4 16.3 32.3 4.9 46.4zm522.4-115.4c-95 126.7-297.9 84-428 90.1 0 0-23.1 1.4-46.3 5.2 0 0 8.7-3.7 20-8 91.3-31.8 134.5-38 190-66.5 104.5-53.2 207.8-169.6 229.3-290.7C621.9 398.2 501.3 498.3 391.4 539c-75.3 27.8-211.3 54.8-211.3 54.8l-5.5-2.9C82 545.8 79.2 345.1 247.5 280.3c73.7-28.4 144.2-12.8 223.8-31.8 85-20.2 183.3-84 223.3-167.2 44.8 133.1 98.7 341.5 2.1 470.3z"/>
        </svg>

        <svg id="facebook" viewBox="0 0 24 24">
            <path fill="currentColor" d="M12 2.04C6.5 2.04 2 6.53 2 12.06C2 17.06 5.66 21.21 10.44 21.96V14.96H7.9V12.06H10.44V9.85C10.44 7.34 11.93 5.96 14.22 5.96C15.31 5.96 16.45 6.15 16.45 6.15V8.62H15.19C13.95 8.62 13.56 9.39 13.56 10.18V12.06H16.34L15.89 14.96H13.56V21.96A10 10 0 0 0 22 12.06C22 6.53 17.5 2.04 12 2.04Z" />
        </svg>

        <svg id="youtube" viewBox="0 0 24 24">
            <path fill="currentColor" d="M10,15L15.19,12L10,9V15M21.56,7.17C21.69,7.64 21.78,8.27 21.84,9.07C21.91,9.87 21.94,10.56 21.94,11.16L22,12C22,14.19 21.84,15.8 21.56,16.83C21.31,17.73 20.73,18.31 19.83,18.56C19.36,18.69 18.5,18.78 17.18,18.84C15.88,18.91 14.69,18.94 13.59,18.94L12,19C7.81,19 5.2,18.84 4.17,18.56C3.27,18.31 2.69,17.73 2.44,16.83C2.31,16.36 2.22,15.73 2.16,14.93C2.09,14.13 2.06,13.44 2.06,12.84L2,12C2,9.81 2.16,8.2 2.44,7.17C2.69,6.27 3.27,5.69 4.17,5.44C4.64,5.31 5.5,5.22 6.82,5.16C8.12,5.09 9.31,5.06 10.41,5.06L12,5C16.19,5 18.8,5.16 19.83,5.44C20.73,5.69 21.31,6.27 21.56,7.17Z" />
        </svg>

    </defs>
</svg>